<svg viewBox="0 0 2817 946" xmlns="http://www.w3.org/2000/svg" fill-rule="evenodd" clip-rule="evenodd" stroke-linejoin="round" stroke-miterlimit="2">
  <path d="M0 20.18h524.905v131.695H347.392v547.809H177.508V151.875H0V20.18zM1051.693 246.359c-23.855-62.992-82.076-102.117-141.246-102.117-93.526 0-167.971 62.987-167.971 215.687 0 99.25 40.083 215.692 173.7 215.692 45.808 0 112.612-34.354 139.337-95.446l134.567 64.909c-58.22 105.925-159.383 173.692-273.904 173.692-216.642 0-343.576-167.967-343.576-358.847 0-190.875 118.342-358.846 330.213-358.846 133.613 0 221.413 64.905 284.405 177.517l-135.525 67.759zM1749.318 233.004c-33.404-58.22-88.758-88.762-160.338-88.762-104.02 0-174.65 66.804-174.65 215.687 0 131.705 59.175 215.692 174.65 215.692 62.038 0 143.159-36.266 150.796-123.12H1588.98V320.803h293.95v378.88h-131.704v-61.075c-43.9 50.58-114.52 80.167-197.554 80.167-205.192 0-309.217-148.884-309.217-355.98 0-207.104 111.663-361.713 333.075-361.713 133.613 0 246.23 59.175 313.034 169.884l-141.246 62.037z" fill="#585856" fill-rule="nonzero"/>
  <path fill="#a89f92" fill-rule="nonzero" d="M2025.18 19.963h169.847v679.62H2025.18z"/>
  <path fill="#a99f92" fill-opacity=".5" fill-rule="nonzero" d="M2332.864 19.963h169.846v679.62h-169.846z"/>
  <path fill="#a99f92" fill-opacity=".27" fill-rule="nonzero" d="M2640.381 19.963h169.842v679.62h-169.842z"/>
  <path d="M-.952 943.35h95.089v-21.022H29.31v-25.41h55.54v-20.266h-55.54v-19.36h59.495v-20.72H-.952v106.779zM209.674 943.35V836.573h-29.06v65.035l-43.16-65.035h-29.747v106.779h29.232v-63.825l42.988 63.825h29.747zM338.466 943.35L293.76 836.573h-31.64l-45.05 106.779h32.326l6.019-17.09h44.707l6.018 17.09h32.327zm-45.223-36.298h-30.78l14.96-45.07 15.82 45.07zM346.72 943.35h59.494c24.761 0 44.708-10.284 44.708-29.946 0-18.754-18.915-24.047-30.608-24.955 7.394-.756 25.965-5.898 25.965-23.896 0-15.579-11.005-27.98-42.988-27.98H346.72V943.35zm28.887-64.58v-22.233h24.933c5.846 0 15.992.453 15.992 10.738 0 11.04-11.521 11.495-18.055 11.495h-22.87zm0 45.222v-25.863h26.137c6.19 0 18.399.302 18.399 13.158 0 12.25-13.585 12.705-23.386 12.705h-21.15zM542.214 943.35v-22.535h-47.459v-84.243h-30.263v106.779h77.722zM555.283 943.35h95.089v-21.022h-64.826v-25.41h55.54v-20.266h-55.54v-19.36h59.495v-20.72h-89.758v106.779zM801.517 857.595v-21.023h-93.714v21.023h31.64v85.756h30.606v-85.756h31.468zM917.24 943.35V836.573h-30.435v38.568H842.44v-38.568h-30.607v106.779h30.607v-45.525h44.364v45.525h30.435zM930.98 943.35h90.873v-21.022h-61.952v-25.41h53.078v-20.266h-53.078v-19.36h56.858v-20.72h-85.78v106.779zM1086.517 943.35h47.803c48.318 0 60.87-27.98 60.87-53.388 0-35.09-20.118-53.39-67.06-53.39h-41.613v106.779zm30.607-84.242h14.96c26.48 0 32.67 13.914 32.67 30.551 0 24.2-11.692 32.215-37.828 32.215h-9.802v-62.766zM1207.386 836.572h30.263v106.779h-30.263zM1361.514 857.595c-5.021-5.747-20.754-24.652-52.054-24.652-41.844 0-58.247 31.61-58.247 57.019 0 27.072 16.57 55.809 53.226 55.809 6.695 0 20.42-.454 34.814-12.251v9.83h23.098v-59.287h-51.385v20.267h26.446c-1.004 15.275-15.064 19.964-25.776 19.964-26.78 0-30.965-22.384-30.965-35.089 0-21.779 11.884-34.483 30.798-34.483 13.557 0 23.432 7.41 27.617 15.124l22.428-12.25zM1379.093 836.572h30.264v106.779h-30.264zM1518.2 857.595v-21.023h-93.713v21.023h31.639v85.756h30.607v-85.756h31.467zM1628.31 943.35l-44.707-106.778h-31.639l-45.051 106.779h32.327l6.018-17.09h44.707l6.019 17.09h32.327zm-45.223-36.298h-30.779l14.96-45.07 15.82 45.07zM1711.125 943.35v-22.535h-45.775v-84.243h-29.19v106.779h74.965zM1772.27 943.35h95.09v-21.022h-64.826v-25.41h55.54v-20.266h-55.54v-19.36h59.496v-20.72h-89.76v106.779zM1984.269 943.35V836.573h-29.06v65.035l-43.16-65.035h-29.747v106.779h29.231v-63.825l42.988 63.825h29.748zM2086.926 857.595v-21.023h-93.714v21.023h31.64v85.756h30.607v-85.756h31.467zM2096.9 943.35h95.09v-21.022h-64.827v-25.41h55.54v-20.266h-55.54v-19.36h59.496v-20.72H2096.9v106.779zM2201.946 836.572v106.779h30.608v-38.114h18.914l24.245 38.114h33.359l-28.028-42.651c13.24-4.084 24.933-11.343 24.933-29.493 0-30.551-28.544-34.635-46.599-34.635h-57.432zm30.436 19.813h25.277c5.33 0 18.054.303 18.054 14.217 0 3.328-.86 14.822-18.226 14.822h-25.105v-29.039zM2320.415 836.572v106.779h30.435v-34.938h24.59c22.009 0 49.005-8.318 49.005-35.39 0-24.502-15.131-36.45-43.847-36.45h-60.183zm30.435 19.662h19.43c9.458 0 23.902.151 23.902 15.578 0 13.915-9.63 16.788-23.385 16.788h-19.947v-32.366zM2435.279 836.572v106.779h30.607v-38.114h18.915l24.245 38.114h33.358l-28.028-42.651c13.24-4.084 24.933-11.343 24.933-29.493 0-30.551-28.544-34.635-46.599-34.635h-57.431zm30.435 19.813h25.277c5.33 0 18.055.303 18.055 14.217 0 3.328-.86 14.822-18.227 14.822h-25.105v-29.039zM2554.257 836.572h30.263v106.779h-30.263zM2701.454 854.268c-11.334-9.982-26.61-20.267-51.083-20.267-29.894 0-46.812 14.67-46.812 35.694 0 18.754 16.59 27.526 36.957 30.097l13.304 1.664c10.348 1.21 20.203 3.328 20.203 10.89 0 8.923-12.811 12.402-21.353 12.402-12.483 0-25.787-4.84-33.507-13.461l-22.01 12.856c11.826 12.704 25.788 21.628 52.89 21.628 33.179 0 52.725-14.671 52.725-37.206 0-18.3-12.484-26.77-42.706-30.703l-12.812-1.664c-9.855-1.36-14.783-4.083-14.783-9.83 0-4.992 5.42-11.344 17.247-11.344 12.483 0 22.01 5.294 30.387 13.31l21.353-14.066zM2715.133 943.35h95.09v-21.022h-64.826v-25.41h55.54v-20.266h-55.54v-19.36h59.495v-20.72h-89.759v106.779z" fill="#a99f92" fill-rule="nonzero"/>
</svg>
